<?xml version="1.0" encoding="UTF-8" standalone="no"?>
<!DOCTYPE svg PUBLIC "-//W3C//DTD SVG 1.1//EN"
 "http://www.w3.org/Graphics/SVG/1.1/DTD/svg11.dtd">
<!-- Generated by graphviz version 2.43.0 (0)
 -->
<!-- Title: model Pages: 1 -->
<svg width="528pt" height="849pt"
 viewBox="0.00 0.00 528.00 849.00" xmlns="http://www.w3.org/2000/svg" xmlns:xlink="http://www.w3.org/1999/xlink">
<g id="graph0" class="graph" transform="scale(1 1) rotate(0) translate(4 845)">
<title>model</title>
<polygon fill="white" stroke="transparent" points="-4,4 -4,-845 524,-845 524,4 -4,4"/>
<g id="clust1" class="cluster">
<title>cluster_2</title>
<polygon fill="none" stroke="black" stroke-dasharray="5,2" points="8,-216 8,-723 278,-723 278,-216 8,-216"/>
<text text-anchor="middle" x="48" y="-709.4" font-family="Times,serif" font-size="12.00">Sequential</text>
</g>
<g id="clust2" class="cluster">
<title>cluster_3</title>
<polygon fill="none" stroke="black" stroke-dasharray="5,2" points="62,-537 62,-694 254,-694 254,-537 62,-537"/>
<text text-anchor="middle" x="118.5" y="-680.4" font-family="Times,serif" font-size="12.00">BackBoneBlock</text>
</g>
<g id="clust3" class="cluster">
<title>cluster_4</title>
<polygon fill="none" stroke="black" stroke-dasharray="5,2" points="16,-450 16,-529 270,-529 270,-450 16,-450"/>
<text text-anchor="middle" x="72.5" y="-515.4" font-family="Times,serif" font-size="12.00">BackBoneBlock</text>
</g>
<g id="clust4" class="cluster">
<title>cluster_5</title>
<polygon fill="none" stroke="black" stroke-dasharray="5,2" points="286,-294 286,-723 512,-723 512,-294 286,-294"/>
<text text-anchor="middle" x="326" y="-709.4" font-family="Times,serif" font-size="12.00">Sequential</text>
</g>
<g id="clust5" class="cluster">
<title>cluster_6</title>
<polygon fill="none" stroke="black" stroke-dasharray="5,2" points="298,-615 298,-694 490,-694 490,-615 298,-615"/>
<text text-anchor="middle" x="354.5" y="-680.4" font-family="Times,serif" font-size="12.00">BackBoneBlock</text>
</g>
<!-- 0 -->
<g id="node1" class="node">
<title>0</title>
<polygon fill="lightyellow" stroke="transparent" points="354,-841 212,-841 212,-809 354,-809 354,-841"/>
<polygon fill="none" stroke="black" points="212,-809 212,-841 282,-841 282,-809 212,-809"/>
<text text-anchor="start" x="217" y="-828" font-family="Linux libertine" font-size="10.00">input&#45;tensor</text>
<text text-anchor="start" x="228.5" y="-817" font-family="Linux libertine" font-size="10.00">depth:0</text>
<polygon fill="none" stroke="black" points="282,-809 282,-841 354,-841 354,-809 282,-809"/>
<text text-anchor="start" x="287" y="-822.5" font-family="Linux libertine" font-size="10.00">(1, 3, 70, 70)</text>
</g>
<!-- 1 -->
<g id="node2" class="node">
<title>1</title>
<polygon fill="#c1ffc1" stroke="transparent" points="371,-773 195,-773 195,-731 371,-731 371,-773"/>
<polygon fill="none" stroke="black" points="195,-731 195,-773 242,-773 242,-731 195,-731"/>
<text text-anchor="start" x="200" y="-755" font-family="Linux libertine" font-size="10.00">Conv2d</text>
<text text-anchor="start" x="200" y="-744" font-family="Linux libertine" font-size="10.00">depth:1</text>
<polygon fill="none" stroke="black" points="242,-752 242,-773 290,-773 290,-752 242,-752"/>
<text text-anchor="start" x="252" y="-760" font-family="Linux libertine" font-size="10.00">input:</text>
<polygon fill="none" stroke="black" points="290,-752 290,-773 371,-773 371,-752 290,-752"/>
<text text-anchor="start" x="298" y="-760" font-family="Linux libertine" font-size="10.00">(1, 3, 70, 70) </text>
<polygon fill="none" stroke="black" points="242,-731 242,-752 290,-752 290,-731 242,-731"/>
<text text-anchor="start" x="247" y="-739" font-family="Linux libertine" font-size="10.00">output: </text>
<polygon fill="none" stroke="black" points="290,-731 290,-752 371,-752 371,-731 290,-731"/>
<text text-anchor="start" x="295" y="-739" font-family="Linux libertine" font-size="10.00">(1, 32, 70, 70) </text>
</g>
<!-- 0&#45;&gt;1 -->
<g id="edge1" class="edge">
<title>0&#45;&gt;1</title>
<path fill="none" stroke="black" d="M283,-808.94C283,-801.45 283,-792.12 283,-783.24"/>
<polygon fill="black" stroke="black" points="286.5,-783.16 283,-773.16 279.5,-783.16 286.5,-783.16"/>
</g>
<!-- 2 -->
<g id="node3" class="node">
<title>2</title>
<polygon fill="#c1ffc1" stroke="transparent" points="246,-665 70,-665 70,-623 246,-623 246,-665"/>
<polygon fill="none" stroke="black" points="70,-623 70,-665 117,-665 117,-623 70,-623"/>
<text text-anchor="start" x="83" y="-647" font-family="Linux libertine" font-size="10.00">HPB</text>
<text text-anchor="start" x="75" y="-636" font-family="Linux libertine" font-size="10.00">depth:3</text>
<polygon fill="none" stroke="black" points="117,-644 117,-665 165,-665 165,-644 117,-644"/>
<text text-anchor="start" x="127" y="-652" font-family="Linux libertine" font-size="10.00">input:</text>
<polygon fill="none" stroke="black" points="165,-644 165,-665 246,-665 246,-644 165,-644"/>
<text text-anchor="start" x="170" y="-652" font-family="Linux libertine" font-size="10.00">(1, 32, 70, 70) </text>
<polygon fill="none" stroke="black" points="117,-623 117,-644 165,-644 165,-623 117,-623"/>
<text text-anchor="start" x="122" y="-631" font-family="Linux libertine" font-size="10.00">output: </text>
<polygon fill="none" stroke="black" points="165,-623 165,-644 246,-644 246,-623 165,-623"/>
<text text-anchor="start" x="170" y="-631" font-family="Linux libertine" font-size="10.00">(1, 32, 70, 70) </text>
</g>
<!-- 1&#45;&gt;2 -->
<g id="edge2" class="edge">
<title>1&#45;&gt;2</title>
<path fill="none" stroke="black" d="M259.19,-730.81C239.38,-714.01 211.03,-689.97 189.37,-671.6"/>
<polygon fill="black" stroke="black" points="191.61,-668.91 181.72,-665.11 187.08,-674.25 191.61,-668.91"/>
</g>
<!-- 8 -->
<g id="node9" class="node">
<title>8</title>
<polygon fill="#c1ffc1" stroke="transparent" points="482,-665 306,-665 306,-623 482,-623 482,-665"/>
<polygon fill="none" stroke="black" points="306,-623 306,-665 353,-665 353,-623 306,-623"/>
<text text-anchor="start" x="319" y="-647" font-family="Linux libertine" font-size="10.00">HPB</text>
<text text-anchor="start" x="311" y="-636" font-family="Linux libertine" font-size="10.00">depth:3</text>
<polygon fill="none" stroke="black" points="353,-644 353,-665 401,-665 401,-644 353,-644"/>
<text text-anchor="start" x="363" y="-652" font-family="Linux libertine" font-size="10.00">input:</text>
<polygon fill="none" stroke="black" points="401,-644 401,-665 482,-665 482,-644 401,-644"/>
<text text-anchor="start" x="406" y="-652" font-family="Linux libertine" font-size="10.00">(1, 32, 70, 70) </text>
<polygon fill="none" stroke="black" points="353,-623 353,-644 401,-644 401,-623 353,-623"/>
<text text-anchor="start" x="358" y="-631" font-family="Linux libertine" font-size="10.00">output: </text>
<polygon fill="none" stroke="black" points="401,-623 401,-644 482,-644 482,-623 401,-623"/>
<text text-anchor="start" x="406" y="-631" font-family="Linux libertine" font-size="10.00">(1, 32, 70, 70) </text>
</g>
<!-- 1&#45;&gt;8 -->
<g id="edge9" class="edge">
<title>1&#45;&gt;8</title>
<path fill="none" stroke="black" d="M304.14,-730.81C321.58,-714.16 346.47,-690.39 365.64,-672.08"/>
<polygon fill="black" stroke="black" points="368.12,-674.55 372.94,-665.11 363.29,-669.49 368.12,-674.55"/>
</g>
<!-- 3 -->
<g id="node4" class="node">
<title>3</title>
<polygon fill="#c1ffc1" stroke="transparent" points="246,-587 70,-587 70,-545 246,-545 246,-587"/>
<polygon fill="none" stroke="black" points="70,-545 70,-587 117,-587 117,-545 70,-545"/>
<text text-anchor="start" x="83" y="-569" font-family="Linux libertine" font-size="10.00">HPB</text>
<text text-anchor="start" x="75" y="-558" font-family="Linux libertine" font-size="10.00">depth:3</text>
<polygon fill="none" stroke="black" points="117,-566 117,-587 165,-587 165,-566 117,-566"/>
<text text-anchor="start" x="127" y="-574" font-family="Linux libertine" font-size="10.00">input:</text>
<polygon fill="none" stroke="black" points="165,-566 165,-587 246,-587 246,-566 165,-566"/>
<text text-anchor="start" x="170" y="-574" font-family="Linux libertine" font-size="10.00">(1, 32, 70, 70) </text>
<polygon fill="none" stroke="black" points="117,-545 117,-566 165,-566 165,-545 117,-545"/>
<text text-anchor="start" x="122" y="-553" font-family="Linux libertine" font-size="10.00">output: </text>
<polygon fill="none" stroke="black" points="165,-545 165,-566 246,-566 246,-545 165,-545"/>
<text text-anchor="start" x="170" y="-553" font-family="Linux libertine" font-size="10.00">(1, 32, 70, 70) </text>
</g>
<!-- 2&#45;&gt;3 -->
<g id="edge3" class="edge">
<title>2&#45;&gt;3</title>
<path fill="none" stroke="black" d="M158,-622.63C158,-614.82 158,-605.73 158,-597.18"/>
<polygon fill="black" stroke="black" points="161.5,-597.16 158,-587.16 154.5,-597.16 161.5,-597.16"/>
</g>
<!-- 4 -->
<g id="node5" class="node">
<title>4</title>
<polygon fill="#c1ffc1" stroke="transparent" points="262,-500 24,-500 24,-458 262,-458 262,-500"/>
<polygon fill="none" stroke="black" points="24,-458 24,-500 133,-500 133,-458 24,-458"/>
<text text-anchor="start" x="29" y="-482" font-family="Linux libertine" font-size="10.00">EfficientTransformer</text>
<text text-anchor="start" x="60" y="-471" font-family="Linux libertine" font-size="10.00">depth:3</text>
<polygon fill="none" stroke="black" points="133,-479 133,-500 181,-500 181,-479 133,-479"/>
<text text-anchor="start" x="143" y="-487" font-family="Linux libertine" font-size="10.00">input:</text>
<polygon fill="none" stroke="black" points="181,-479 181,-500 262,-500 262,-479 181,-479"/>
<text text-anchor="start" x="186" y="-487" font-family="Linux libertine" font-size="10.00">(1, 32, 70, 70) </text>
<polygon fill="none" stroke="black" points="133,-458 133,-479 181,-479 181,-458 133,-458"/>
<text text-anchor="start" x="138" y="-466" font-family="Linux libertine" font-size="10.00">output: </text>
<polygon fill="none" stroke="black" points="181,-458 181,-479 262,-479 262,-458 181,-458"/>
<text text-anchor="start" x="186" y="-466" font-family="Linux libertine" font-size="10.00">(1, 32, 70, 70) </text>
</g>
<!-- 3&#45;&gt;4 -->
<g id="edge4" class="edge">
<title>3&#45;&gt;4</title>
<path fill="none" stroke="black" d="M154.45,-544.86C152.63,-534.56 150.38,-521.81 148.36,-510.35"/>
<polygon fill="black" stroke="black" points="151.77,-509.53 146.58,-500.29 144.87,-510.75 151.77,-509.53"/>
</g>
<!-- 5 -->
<g id="node6" class="node">
<title>5</title>
<polygon fill="#c1ffc1" stroke="transparent" points="234,-422 58,-422 58,-380 234,-380 234,-422"/>
<polygon fill="none" stroke="black" points="58,-380 58,-422 105,-422 105,-380 58,-380"/>
<text text-anchor="start" x="63" y="-404" font-family="Linux libertine" font-size="10.00">Conv2d</text>
<text text-anchor="start" x="63" y="-393" font-family="Linux libertine" font-size="10.00">depth:2</text>
<polygon fill="none" stroke="black" points="105,-401 105,-422 153,-422 153,-401 105,-401"/>
<text text-anchor="start" x="115" y="-409" font-family="Linux libertine" font-size="10.00">input:</text>
<polygon fill="none" stroke="black" points="153,-401 153,-422 234,-422 234,-401 153,-401"/>
<text text-anchor="start" x="158" y="-409" font-family="Linux libertine" font-size="10.00">(1, 32, 70, 70) </text>
<polygon fill="none" stroke="black" points="105,-380 105,-401 153,-401 153,-380 105,-380"/>
<text text-anchor="start" x="110" y="-388" font-family="Linux libertine" font-size="10.00">output: </text>
<polygon fill="none" stroke="black" points="153,-380 153,-401 234,-401 234,-380 153,-380"/>
<text text-anchor="start" x="158" y="-388" font-family="Linux libertine" font-size="10.00">(1, 32, 70, 70) </text>
</g>
<!-- 4&#45;&gt;5 -->
<g id="edge5" class="edge">
<title>4&#45;&gt;5</title>
<path fill="none" stroke="black" d="M143.8,-457.63C144.11,-449.82 144.47,-440.73 144.81,-432.18"/>
<polygon fill="black" stroke="black" points="148.31,-432.29 145.2,-422.16 141.31,-432.01 148.31,-432.29"/>
</g>
<!-- 6 -->
<g id="node7" class="node">
<title>6</title>
<polygon fill="#c1ffc1" stroke="transparent" points="260.5,-344 57.5,-344 57.5,-302 260.5,-302 260.5,-344"/>
<polygon fill="none" stroke="black" points="58,-302 58,-344 126,-344 126,-302 58,-302"/>
<text text-anchor="start" x="63" y="-326" font-family="Linux libertine" font-size="10.00">PixelShuffle</text>
<text text-anchor="start" x="73.5" y="-315" font-family="Linux libertine" font-size="10.00">depth:2</text>
<polygon fill="none" stroke="black" points="126,-323 126,-344 174,-344 174,-323 126,-323"/>
<text text-anchor="start" x="136" y="-331" font-family="Linux libertine" font-size="10.00">input:</text>
<polygon fill="none" stroke="black" points="174,-323 174,-344 261,-344 261,-323 174,-323"/>
<text text-anchor="start" x="182" y="-331" font-family="Linux libertine" font-size="10.00">(1, 32, 70, 70) </text>
<polygon fill="none" stroke="black" points="126,-302 126,-323 174,-323 174,-302 126,-302"/>
<text text-anchor="start" x="131" y="-310" font-family="Linux libertine" font-size="10.00">output: </text>
<polygon fill="none" stroke="black" points="174,-302 174,-323 261,-323 261,-302 174,-302"/>
<text text-anchor="start" x="179" y="-310" font-family="Linux libertine" font-size="10.00">(1, 2, 280, 280) </text>
</g>
<!-- 5&#45;&gt;6 -->
<g id="edge6" class="edge">
<title>5&#45;&gt;6</title>
<path fill="none" stroke="black" d="M149.48,-379.63C150.82,-371.82 152.38,-362.73 153.84,-354.18"/>
<polygon fill="black" stroke="black" points="157.32,-354.61 155.55,-344.16 150.42,-353.43 157.32,-354.61"/>
</g>
<!-- 7 -->
<g id="node8" class="node">
<title>7</title>
<polygon fill="#c1ffc1" stroke="transparent" points="252,-266 70,-266 70,-224 252,-224 252,-266"/>
<polygon fill="none" stroke="black" points="70,-224 70,-266 117,-266 117,-224 70,-224"/>
<text text-anchor="start" x="75" y="-248" font-family="Linux libertine" font-size="10.00">Conv2d</text>
<text text-anchor="start" x="75" y="-237" font-family="Linux libertine" font-size="10.00">depth:2</text>
<polygon fill="none" stroke="black" points="117,-245 117,-266 165,-266 165,-245 117,-245"/>
<text text-anchor="start" x="127" y="-253" font-family="Linux libertine" font-size="10.00">input:</text>
<polygon fill="none" stroke="black" points="165,-245 165,-266 252,-266 252,-245 165,-245"/>
<text text-anchor="start" x="170" y="-253" font-family="Linux libertine" font-size="10.00">(1, 2, 280, 280) </text>
<polygon fill="none" stroke="black" points="117,-224 117,-245 165,-245 165,-224 117,-224"/>
<text text-anchor="start" x="122" y="-232" font-family="Linux libertine" font-size="10.00">output: </text>
<polygon fill="none" stroke="black" points="165,-224 165,-245 252,-245 252,-224 165,-224"/>
<text text-anchor="start" x="170" y="-232" font-family="Linux libertine" font-size="10.00">(1, 3, 280, 280) </text>
</g>
<!-- 6&#45;&gt;7 -->
<g id="edge7" class="edge">
<title>6&#45;&gt;7</title>
<path fill="none" stroke="black" d="M159.54,-301.63C159.74,-293.82 159.98,-284.73 160.21,-276.18"/>
<polygon fill="black" stroke="black" points="163.71,-276.25 160.47,-266.16 156.71,-276.06 163.71,-276.25"/>
</g>
<!-- 13 -->
<g id="node14" class="node">
<title>13</title>
<polygon fill="aliceblue" stroke="transparent" points="265,-188 83,-188 83,-146 265,-146 265,-188"/>
<polygon fill="none" stroke="black" points="83,-146 83,-188 130,-188 130,-146 83,-146"/>
<text text-anchor="start" x="97" y="-170" font-family="Linux libertine" font-size="10.00">mul</text>
<text text-anchor="start" x="88" y="-159" font-family="Linux libertine" font-size="10.00">depth:1</text>
<polygon fill="none" stroke="black" points="130,-167 130,-188 178,-188 178,-167 130,-167"/>
<text text-anchor="start" x="140" y="-175" font-family="Linux libertine" font-size="10.00">input:</text>
<polygon fill="none" stroke="black" points="178,-167 178,-188 265,-188 265,-167 178,-167"/>
<text text-anchor="start" x="183" y="-175" font-family="Linux libertine" font-size="10.00">(1, 3, 280, 280) </text>
<polygon fill="none" stroke="black" points="130,-146 130,-167 178,-167 178,-146 130,-146"/>
<text text-anchor="start" x="135" y="-154" font-family="Linux libertine" font-size="10.00">output: </text>
<polygon fill="none" stroke="black" points="178,-146 178,-167 265,-167 265,-146 178,-146"/>
<text text-anchor="start" x="183" y="-154" font-family="Linux libertine" font-size="10.00">(1, 3, 280, 280) </text>
</g>
<!-- 7&#45;&gt;13 -->
<g id="edge8" class="edge">
<title>7&#45;&gt;13</title>
<path fill="none" stroke="black" d="M164.48,-223.63C165.82,-215.82 167.38,-206.73 168.84,-198.18"/>
<polygon fill="black" stroke="black" points="172.32,-198.61 170.55,-188.16 165.42,-197.43 172.32,-198.61"/>
</g>
<!-- 9 -->
<g id="node10" class="node">
<title>9</title>
<polygon fill="#c1ffc1" stroke="transparent" points="487,-587 305,-587 305,-545 487,-545 487,-587"/>
<polygon fill="none" stroke="black" points="305,-545 305,-587 352,-587 352,-545 305,-545"/>
<text text-anchor="start" x="310" y="-569" font-family="Linux libertine" font-size="10.00">Conv2d</text>
<text text-anchor="start" x="310" y="-558" font-family="Linux libertine" font-size="10.00">depth:2</text>
<polygon fill="none" stroke="black" points="352,-566 352,-587 400,-587 400,-566 352,-566"/>
<text text-anchor="start" x="362" y="-574" font-family="Linux libertine" font-size="10.00">input:</text>
<polygon fill="none" stroke="black" points="400,-566 400,-587 487,-587 487,-566 400,-566"/>
<text text-anchor="start" x="408" y="-574" font-family="Linux libertine" font-size="10.00">(1, 32, 70, 70) </text>
<polygon fill="none" stroke="black" points="352,-545 352,-566 400,-566 400,-545 352,-545"/>
<text text-anchor="start" x="357" y="-553" font-family="Linux libertine" font-size="10.00">output: </text>
<polygon fill="none" stroke="black" points="400,-545 400,-566 487,-566 487,-545 400,-545"/>
<text text-anchor="start" x="405" y="-553" font-family="Linux libertine" font-size="10.00">(1, 512, 70, 70) </text>
</g>
<!-- 8&#45;&gt;9 -->
<g id="edge10" class="edge">
<title>8&#45;&gt;9</title>
<path fill="none" stroke="black" d="M394.54,-622.63C394.74,-614.82 394.98,-605.73 395.21,-597.18"/>
<polygon fill="black" stroke="black" points="398.71,-597.25 395.47,-587.16 391.71,-597.06 398.71,-597.25"/>
</g>
<!-- 10 -->
<g id="node11" class="node">
<title>10</title>
<polygon fill="#c1ffc1" stroke="transparent" points="503.5,-500 294.5,-500 294.5,-458 503.5,-458 503.5,-500"/>
<polygon fill="none" stroke="black" points="295,-458 295,-500 363,-500 363,-458 295,-458"/>
<text text-anchor="start" x="300" y="-482" font-family="Linux libertine" font-size="10.00">PixelShuffle</text>
<text text-anchor="start" x="310.5" y="-471" font-family="Linux libertine" font-size="10.00">depth:2</text>
<polygon fill="none" stroke="black" points="363,-479 363,-500 411,-500 411,-479 363,-479"/>
<text text-anchor="start" x="373" y="-487" font-family="Linux libertine" font-size="10.00">input:</text>
<polygon fill="none" stroke="black" points="411,-479 411,-500 504,-500 504,-479 411,-479"/>
<text text-anchor="start" x="419" y="-487" font-family="Linux libertine" font-size="10.00">(1, 512, 70, 70) </text>
<polygon fill="none" stroke="black" points="363,-458 363,-479 411,-479 411,-458 363,-458"/>
<text text-anchor="start" x="368" y="-466" font-family="Linux libertine" font-size="10.00">output: </text>
<polygon fill="none" stroke="black" points="411,-458 411,-479 504,-479 504,-458 411,-458"/>
<text text-anchor="start" x="416" y="-466" font-family="Linux libertine" font-size="10.00">(1, 32, 280, 280) </text>
</g>
<!-- 9&#45;&gt;10 -->
<g id="edge11" class="edge">
<title>9&#45;&gt;10</title>
<path fill="none" stroke="black" d="M396.71,-544.86C397.07,-534.56 397.52,-521.81 397.93,-510.35"/>
<polygon fill="black" stroke="black" points="401.43,-510.41 398.28,-500.29 394.43,-510.16 401.43,-510.41"/>
</g>
<!-- 11 -->
<g id="node12" class="node">
<title>11</title>
<polygon fill="#c1ffc1" stroke="transparent" points="490,-422 302,-422 302,-380 490,-380 490,-422"/>
<polygon fill="none" stroke="black" points="302,-380 302,-422 349,-422 349,-380 302,-380"/>
<text text-anchor="start" x="309.5" y="-404" font-family="Linux libertine" font-size="10.00">PReLU</text>
<text text-anchor="start" x="307" y="-393" font-family="Linux libertine" font-size="10.00">depth:2</text>
<polygon fill="none" stroke="black" points="349,-401 349,-422 397,-422 397,-401 349,-401"/>
<text text-anchor="start" x="359" y="-409" font-family="Linux libertine" font-size="10.00">input:</text>
<polygon fill="none" stroke="black" points="397,-401 397,-422 490,-422 490,-401 397,-401"/>
<text text-anchor="start" x="402" y="-409" font-family="Linux libertine" font-size="10.00">(1, 32, 280, 280) </text>
<polygon fill="none" stroke="black" points="349,-380 349,-401 397,-401 397,-380 349,-380"/>
<text text-anchor="start" x="354" y="-388" font-family="Linux libertine" font-size="10.00">output: </text>
<polygon fill="none" stroke="black" points="397,-380 397,-401 490,-401 490,-380 397,-380"/>
<text text-anchor="start" x="402" y="-388" font-family="Linux libertine" font-size="10.00">(1, 32, 280, 280) </text>
</g>
<!-- 10&#45;&gt;11 -->
<g id="edge12" class="edge">
<title>10&#45;&gt;11</title>
<path fill="none" stroke="black" d="M398.2,-457.63C397.89,-449.82 397.53,-440.73 397.19,-432.18"/>
<polygon fill="black" stroke="black" points="400.69,-432.01 396.8,-422.16 393.69,-432.29 400.69,-432.01"/>
</g>
<!-- 12 -->
<g id="node13" class="node">
<title>12</title>
<polygon fill="#c1ffc1" stroke="transparent" points="487,-344 299,-344 299,-302 487,-302 487,-344"/>
<polygon fill="none" stroke="black" points="299,-302 299,-344 346,-344 346,-302 299,-302"/>
<text text-anchor="start" x="304" y="-326" font-family="Linux libertine" font-size="10.00">Conv2d</text>
<text text-anchor="start" x="304" y="-315" font-family="Linux libertine" font-size="10.00">depth:2</text>
<polygon fill="none" stroke="black" points="346,-323 346,-344 394,-344 394,-323 346,-323"/>
<text text-anchor="start" x="356" y="-331" font-family="Linux libertine" font-size="10.00">input:</text>
<polygon fill="none" stroke="black" points="394,-323 394,-344 487,-344 487,-323 394,-323"/>
<text text-anchor="start" x="399" y="-331" font-family="Linux libertine" font-size="10.00">(1, 32, 280, 280) </text>
<polygon fill="none" stroke="black" points="346,-302 346,-323 394,-323 394,-302 346,-302"/>
<text text-anchor="start" x="351" y="-310" font-family="Linux libertine" font-size="10.00">output: </text>
<polygon fill="none" stroke="black" points="394,-302 394,-323 487,-323 487,-302 394,-302"/>
<text text-anchor="start" x="402" y="-310" font-family="Linux libertine" font-size="10.00">(1, 3, 280, 280) </text>
</g>
<!-- 11&#45;&gt;12 -->
<g id="edge13" class="edge">
<title>11&#45;&gt;12</title>
<path fill="none" stroke="black" d="M395.2,-379.63C394.89,-371.82 394.53,-362.73 394.19,-354.18"/>
<polygon fill="black" stroke="black" points="397.69,-354.01 393.8,-344.16 390.69,-354.29 397.69,-354.01"/>
</g>
<!-- 14 -->
<g id="node15" class="node">
<title>14</title>
<polygon fill="aliceblue" stroke="transparent" points="473,-266 291,-266 291,-224 473,-224 473,-266"/>
<polygon fill="none" stroke="black" points="291,-224 291,-266 338,-266 338,-224 291,-224"/>
<text text-anchor="start" x="296.5" y="-248" font-family="Linux libertine" font-size="10.00">clamp_</text>
<text text-anchor="start" x="296" y="-237" font-family="Linux libertine" font-size="10.00">depth:1</text>
<polygon fill="none" stroke="black" points="338,-245 338,-266 386,-266 386,-245 338,-245"/>
<text text-anchor="start" x="348" y="-253" font-family="Linux libertine" font-size="10.00">input:</text>
<polygon fill="none" stroke="black" points="386,-245 386,-266 473,-266 473,-245 386,-245"/>
<text text-anchor="start" x="391" y="-253" font-family="Linux libertine" font-size="10.00">(1, 3, 280, 280) </text>
<polygon fill="none" stroke="black" points="338,-224 338,-245 386,-245 386,-224 338,-224"/>
<text text-anchor="start" x="343" y="-232" font-family="Linux libertine" font-size="10.00">output: </text>
<polygon fill="none" stroke="black" points="386,-224 386,-245 473,-245 473,-224 386,-224"/>
<text text-anchor="start" x="391" y="-232" font-family="Linux libertine" font-size="10.00">(1, 3, 280, 280) </text>
</g>
<!-- 12&#45;&gt;14 -->
<g id="edge14" class="edge">
<title>12&#45;&gt;14</title>
<path fill="none" stroke="black" d="M390.05,-301.63C388.92,-293.82 387.6,-284.73 386.37,-276.18"/>
<polygon fill="black" stroke="black" points="389.81,-275.55 384.92,-266.16 382.89,-276.56 389.81,-275.55"/>
</g>
<!-- 16 -->
<g id="node17" class="node">
<title>16</title>
<polygon fill="aliceblue" stroke="transparent" points="374,-110 174,-110 174,-68 374,-68 374,-110"/>
<polygon fill="none" stroke="black" points="174,-68 174,-110 221,-110 221,-68 174,-68"/>
<text text-anchor="start" x="188" y="-92" font-family="Linux libertine" font-size="10.00">add</text>
<text text-anchor="start" x="179" y="-81" font-family="Linux libertine" font-size="10.00">depth:1</text>
<polygon fill="none" stroke="black" points="221,-89 221,-110 269,-110 269,-89 221,-89"/>
<text text-anchor="start" x="231" y="-97" font-family="Linux libertine" font-size="10.00">input:</text>
<polygon fill="none" stroke="black" points="269,-89 269,-110 374,-110 374,-89 269,-89"/>
<text text-anchor="start" x="274" y="-97" font-family="Linux libertine" font-size="10.00">2 x (1, 3, 280, 280) </text>
<polygon fill="none" stroke="black" points="221,-68 221,-89 269,-89 269,-68 221,-68"/>
<text text-anchor="start" x="226" y="-76" font-family="Linux libertine" font-size="10.00">output: </text>
<polygon fill="none" stroke="black" points="269,-68 269,-89 374,-89 374,-68 269,-68"/>
<text text-anchor="start" x="283" y="-76" font-family="Linux libertine" font-size="10.00">(1, 3, 280, 280) </text>
</g>
<!-- 13&#45;&gt;16 -->
<g id="edge15" class="edge">
<title>13&#45;&gt;16</title>
<path fill="none" stroke="black" d="M200.54,-145.83C212.4,-136.81 226.55,-126.06 239.24,-116.41"/>
<polygon fill="black" stroke="black" points="241.5,-119.1 247.34,-110.26 237.26,-113.53 241.5,-119.1"/>
</g>
<!-- 15 -->
<g id="node16" class="node">
<title>15</title>
<polygon fill="aliceblue" stroke="transparent" points="471,-188 289,-188 289,-146 471,-146 471,-188"/>
<polygon fill="none" stroke="black" points="289,-146 289,-188 336,-188 336,-146 289,-146"/>
<text text-anchor="start" x="303" y="-170" font-family="Linux libertine" font-size="10.00">mul</text>
<text text-anchor="start" x="294" y="-159" font-family="Linux libertine" font-size="10.00">depth:1</text>
<polygon fill="none" stroke="black" points="336,-167 336,-188 384,-188 384,-167 336,-167"/>
<text text-anchor="start" x="346" y="-175" font-family="Linux libertine" font-size="10.00">input:</text>
<polygon fill="none" stroke="black" points="384,-167 384,-188 471,-188 471,-167 384,-167"/>
<text text-anchor="start" x="389" y="-175" font-family="Linux libertine" font-size="10.00">(1, 3, 280, 280) </text>
<polygon fill="none" stroke="black" points="336,-146 336,-167 384,-167 384,-146 336,-146"/>
<text text-anchor="start" x="341" y="-154" font-family="Linux libertine" font-size="10.00">output: </text>
<polygon fill="none" stroke="black" points="384,-146 384,-167 471,-167 471,-146 384,-146"/>
<text text-anchor="start" x="389" y="-154" font-family="Linux libertine" font-size="10.00">(1, 3, 280, 280) </text>
</g>
<!-- 14&#45;&gt;15 -->
<g id="edge16" class="edge">
<title>14&#45;&gt;15</title>
<path fill="none" stroke="black" d="M381.46,-223.63C381.26,-215.82 381.02,-206.73 380.79,-198.18"/>
<polygon fill="black" stroke="black" points="384.29,-198.06 380.53,-188.16 377.29,-198.25 384.29,-198.06"/>
</g>
<!-- 15&#45;&gt;16 -->
<g id="edge17" class="edge">
<title>15&#45;&gt;16</title>
<path fill="none" stroke="black" d="M351.87,-145.83C339.17,-136.73 324.01,-125.86 310.46,-116.14"/>
<polygon fill="black" stroke="black" points="312.43,-113.24 302.26,-110.26 308.35,-118.93 312.43,-113.24"/>
</g>
<!-- 17 -->
<g id="node18" class="node">
<title>17</title>
<polygon fill="lightyellow" stroke="transparent" points="354.5,-32 193.5,-32 193.5,0 354.5,0 354.5,-32"/>
<polygon fill="none" stroke="black" points="194,0 194,-32 271,-32 271,0 194,0"/>
<text text-anchor="start" x="199" y="-19" font-family="Linux libertine" font-size="10.00">output&#45;tensor</text>
<text text-anchor="start" x="214" y="-8" font-family="Linux libertine" font-size="10.00">depth:0</text>
<polygon fill="none" stroke="black" points="271,0 271,-32 355,-32 355,0 271,0"/>
<text text-anchor="start" x="276" y="-13.5" font-family="Linux libertine" font-size="10.00">(1, 3, 280, 280)</text>
</g>
<!-- 16&#45;&gt;17 -->
<g id="edge18" class="edge">
<title>16&#45;&gt;17</title>
<path fill="none" stroke="black" d="M274,-67.84C274,-59.89 274,-50.66 274,-42.26"/>
<polygon fill="black" stroke="black" points="277.5,-42.24 274,-32.24 270.5,-42.24 277.5,-42.24"/>
</g>
</g>
</svg>
