<?xml version="1.0" encoding="UTF-8" standalone="no"?>
<!DOCTYPE svg PUBLIC "-//W3C//DTD SVG 1.1//EN"
 "http://www.w3.org/Graphics/SVG/1.1/DTD/svg11.dtd">
<!-- Generated by graphviz version 2.43.0 (0)
 -->
<!-- Title: model Pages: 1 -->
<svg width="520pt" height="849pt"
 viewBox="0.00 0.00 520.00 849.00" xmlns="http://www.w3.org/2000/svg" xmlns:xlink="http://www.w3.org/1999/xlink">
<g id="graph0" class="graph" transform="scale(1 1) rotate(0) translate(4 845)">
<title>model</title>
<polygon fill="white" stroke="transparent" points="-4,4 -4,-845 516,-845 516,4 -4,4"/>
<g id="clust1" class="cluster">
<title>cluster_2</title>
<polygon fill="none" stroke="black" stroke-dasharray="5,2" points="8,-138 8,-723 278,-723 278,-138 8,-138"/>
<text text-anchor="middle" x="48" y="-709.4" font-family="Times,serif" font-size="12.00">Sequential</text>
</g>
<g id="clust2" class="cluster">
<title>cluster_3</title>
<polygon fill="none" stroke="black" stroke-dasharray="5,2" points="62,-459 62,-694 254,-694 254,-459 62,-459"/>
<text text-anchor="middle" x="118.5" y="-680.4" font-family="Times,serif" font-size="12.00">BackBoneBlock</text>
</g>
<g id="clust3" class="cluster">
<title>cluster_4</title>
<polygon fill="none" stroke="black" stroke-dasharray="5,2" points="16,-372 16,-451 270,-451 270,-372 16,-372"/>
<text text-anchor="middle" x="72.5" y="-437.4" font-family="Times,serif" font-size="12.00">BackBoneBlock</text>
</g>
<g id="clust4" class="cluster">
<title>cluster_5</title>
<polygon fill="none" stroke="black" stroke-dasharray="5,2" points="286,-537 286,-694 504,-694 504,-537 286,-537"/>
<text text-anchor="middle" x="326" y="-680.4" font-family="Times,serif" font-size="12.00">Sequential</text>
</g>
<!-- 0 -->
<g id="node1" class="node">
<title>0</title>
<polygon fill="lightyellow" stroke="transparent" points="355,-841 213,-841 213,-809 355,-809 355,-841"/>
<polygon fill="none" stroke="black" points="213,-809 213,-841 283,-841 283,-809 213,-809"/>
<text text-anchor="start" x="218" y="-828" font-family="Linux libertine" font-size="10.00">input&#45;tensor</text>
<text text-anchor="start" x="229.5" y="-817" font-family="Linux libertine" font-size="10.00">depth:0</text>
<polygon fill="none" stroke="black" points="283,-809 283,-841 355,-841 355,-809 283,-809"/>
<text text-anchor="start" x="288" y="-822.5" font-family="Linux libertine" font-size="10.00">(1, 3, 70, 70)</text>
</g>
<!-- 1 -->
<g id="node2" class="node">
<title>1</title>
<polygon fill="#c1ffc1" stroke="transparent" points="372,-773 196,-773 196,-731 372,-731 372,-773"/>
<polygon fill="none" stroke="black" points="196,-731 196,-773 243,-773 243,-731 196,-731"/>
<text text-anchor="start" x="201" y="-755" font-family="Linux libertine" font-size="10.00">Conv2d</text>
<text text-anchor="start" x="201" y="-744" font-family="Linux libertine" font-size="10.00">depth:1</text>
<polygon fill="none" stroke="black" points="243,-752 243,-773 291,-773 291,-752 243,-752"/>
<text text-anchor="start" x="253" y="-760" font-family="Linux libertine" font-size="10.00">input:</text>
<polygon fill="none" stroke="black" points="291,-752 291,-773 372,-773 372,-752 291,-752"/>
<text text-anchor="start" x="299" y="-760" font-family="Linux libertine" font-size="10.00">(1, 3, 70, 70) </text>
<polygon fill="none" stroke="black" points="243,-731 243,-752 291,-752 291,-731 243,-731"/>
<text text-anchor="start" x="248" y="-739" font-family="Linux libertine" font-size="10.00">output: </text>
<polygon fill="none" stroke="black" points="291,-731 291,-752 372,-752 372,-731 291,-731"/>
<text text-anchor="start" x="296" y="-739" font-family="Linux libertine" font-size="10.00">(1, 32, 70, 70) </text>
</g>
<!-- 0&#45;&gt;1 -->
<g id="edge1" class="edge">
<title>0&#45;&gt;1</title>
<path fill="none" stroke="black" d="M284,-808.94C284,-801.45 284,-792.12 284,-783.24"/>
<polygon fill="black" stroke="black" points="287.5,-783.16 284,-773.16 280.5,-783.16 287.5,-783.16"/>
</g>
<!-- 2 -->
<g id="node3" class="node">
<title>2</title>
<polygon fill="#c1ffc1" stroke="transparent" points="246,-665 70,-665 70,-623 246,-623 246,-665"/>
<polygon fill="none" stroke="black" points="70,-623 70,-665 117,-665 117,-623 70,-623"/>
<text text-anchor="start" x="83" y="-647" font-family="Linux libertine" font-size="10.00">HPB</text>
<text text-anchor="start" x="75" y="-636" font-family="Linux libertine" font-size="10.00">depth:3</text>
<polygon fill="none" stroke="black" points="117,-644 117,-665 165,-665 165,-644 117,-644"/>
<text text-anchor="start" x="127" y="-652" font-family="Linux libertine" font-size="10.00">input:</text>
<polygon fill="none" stroke="black" points="165,-644 165,-665 246,-665 246,-644 165,-644"/>
<text text-anchor="start" x="170" y="-652" font-family="Linux libertine" font-size="10.00">(1, 32, 70, 70) </text>
<polygon fill="none" stroke="black" points="117,-623 117,-644 165,-644 165,-623 117,-623"/>
<text text-anchor="start" x="122" y="-631" font-family="Linux libertine" font-size="10.00">output: </text>
<polygon fill="none" stroke="black" points="165,-623 165,-644 246,-644 246,-623 165,-623"/>
<text text-anchor="start" x="170" y="-631" font-family="Linux libertine" font-size="10.00">(1, 32, 70, 70) </text>
</g>
<!-- 1&#45;&gt;2 -->
<g id="edge2" class="edge">
<title>1&#45;&gt;2</title>
<path fill="none" stroke="black" d="M260,-730.81C240.04,-714.01 211.45,-689.97 189.62,-671.6"/>
<polygon fill="black" stroke="black" points="191.81,-668.87 181.91,-665.11 187.31,-674.23 191.81,-668.87"/>
</g>
<!-- 9 -->
<g id="node10" class="node">
<title>9</title>
<polygon fill="#c1ffc1" stroke="transparent" points="496.5,-665 293.5,-665 293.5,-623 496.5,-623 496.5,-665"/>
<polygon fill="none" stroke="black" points="294,-623 294,-665 362,-665 362,-623 294,-623"/>
<text text-anchor="start" x="299" y="-647" font-family="Linux libertine" font-size="10.00">PixelShuffle</text>
<text text-anchor="start" x="309.5" y="-636" font-family="Linux libertine" font-size="10.00">depth:2</text>
<polygon fill="none" stroke="black" points="362,-644 362,-665 410,-665 410,-644 362,-644"/>
<text text-anchor="start" x="372" y="-652" font-family="Linux libertine" font-size="10.00">input:</text>
<polygon fill="none" stroke="black" points="410,-644 410,-665 497,-665 497,-644 410,-644"/>
<text text-anchor="start" x="418" y="-652" font-family="Linux libertine" font-size="10.00">(1, 32, 70, 70) </text>
<polygon fill="none" stroke="black" points="362,-623 362,-644 410,-644 410,-623 362,-623"/>
<text text-anchor="start" x="367" y="-631" font-family="Linux libertine" font-size="10.00">output: </text>
<polygon fill="none" stroke="black" points="410,-623 410,-644 497,-644 497,-623 410,-623"/>
<text text-anchor="start" x="415" y="-631" font-family="Linux libertine" font-size="10.00">(1, 2, 280, 280) </text>
</g>
<!-- 1&#45;&gt;9 -->
<g id="edge10" class="edge">
<title>1&#45;&gt;9</title>
<path fill="none" stroke="black" d="M305.14,-730.81C322.58,-714.16 347.47,-690.39 366.64,-672.08"/>
<polygon fill="black" stroke="black" points="369.12,-674.55 373.94,-665.11 364.29,-669.49 369.12,-674.55"/>
</g>
<!-- 3 -->
<g id="node4" class="node">
<title>3</title>
<polygon fill="#c1ffc1" stroke="transparent" points="246,-587 70,-587 70,-545 246,-545 246,-587"/>
<polygon fill="none" stroke="black" points="70,-545 70,-587 117,-587 117,-545 70,-545"/>
<text text-anchor="start" x="83" y="-569" font-family="Linux libertine" font-size="10.00">HPB</text>
<text text-anchor="start" x="75" y="-558" font-family="Linux libertine" font-size="10.00">depth:3</text>
<polygon fill="none" stroke="black" points="117,-566 117,-587 165,-587 165,-566 117,-566"/>
<text text-anchor="start" x="127" y="-574" font-family="Linux libertine" font-size="10.00">input:</text>
<polygon fill="none" stroke="black" points="165,-566 165,-587 246,-587 246,-566 165,-566"/>
<text text-anchor="start" x="170" y="-574" font-family="Linux libertine" font-size="10.00">(1, 32, 70, 70) </text>
<polygon fill="none" stroke="black" points="117,-545 117,-566 165,-566 165,-545 117,-545"/>
<text text-anchor="start" x="122" y="-553" font-family="Linux libertine" font-size="10.00">output: </text>
<polygon fill="none" stroke="black" points="165,-545 165,-566 246,-566 246,-545 165,-545"/>
<text text-anchor="start" x="170" y="-553" font-family="Linux libertine" font-size="10.00">(1, 32, 70, 70) </text>
</g>
<!-- 2&#45;&gt;3 -->
<g id="edge3" class="edge">
<title>2&#45;&gt;3</title>
<path fill="none" stroke="black" d="M158,-622.63C158,-614.82 158,-605.73 158,-597.18"/>
<polygon fill="black" stroke="black" points="161.5,-597.16 158,-587.16 154.5,-597.16 161.5,-597.16"/>
</g>
<!-- 4 -->
<g id="node5" class="node">
<title>4</title>
<polygon fill="#c1ffc1" stroke="transparent" points="246,-509 70,-509 70,-467 246,-467 246,-509"/>
<polygon fill="none" stroke="black" points="70,-467 70,-509 117,-509 117,-467 70,-467"/>
<text text-anchor="start" x="83" y="-491" font-family="Linux libertine" font-size="10.00">HPB</text>
<text text-anchor="start" x="75" y="-480" font-family="Linux libertine" font-size="10.00">depth:3</text>
<polygon fill="none" stroke="black" points="117,-488 117,-509 165,-509 165,-488 117,-488"/>
<text text-anchor="start" x="127" y="-496" font-family="Linux libertine" font-size="10.00">input:</text>
<polygon fill="none" stroke="black" points="165,-488 165,-509 246,-509 246,-488 165,-488"/>
<text text-anchor="start" x="170" y="-496" font-family="Linux libertine" font-size="10.00">(1, 32, 70, 70) </text>
<polygon fill="none" stroke="black" points="117,-467 117,-488 165,-488 165,-467 117,-467"/>
<text text-anchor="start" x="122" y="-475" font-family="Linux libertine" font-size="10.00">output: </text>
<polygon fill="none" stroke="black" points="165,-467 165,-488 246,-488 246,-467 165,-467"/>
<text text-anchor="start" x="170" y="-475" font-family="Linux libertine" font-size="10.00">(1, 32, 70, 70) </text>
</g>
<!-- 3&#45;&gt;4 -->
<g id="edge4" class="edge">
<title>3&#45;&gt;4</title>
<path fill="none" stroke="black" d="M158,-544.63C158,-536.82 158,-527.73 158,-519.18"/>
<polygon fill="black" stroke="black" points="161.5,-519.16 158,-509.16 154.5,-519.16 161.5,-519.16"/>
</g>
<!-- 5 -->
<g id="node6" class="node">
<title>5</title>
<polygon fill="#c1ffc1" stroke="transparent" points="262,-422 24,-422 24,-380 262,-380 262,-422"/>
<polygon fill="none" stroke="black" points="24,-380 24,-422 133,-422 133,-380 24,-380"/>
<text text-anchor="start" x="29" y="-404" font-family="Linux libertine" font-size="10.00">EfficientTransformer</text>
<text text-anchor="start" x="60" y="-393" font-family="Linux libertine" font-size="10.00">depth:3</text>
<polygon fill="none" stroke="black" points="133,-401 133,-422 181,-422 181,-401 133,-401"/>
<text text-anchor="start" x="143" y="-409" font-family="Linux libertine" font-size="10.00">input:</text>
<polygon fill="none" stroke="black" points="181,-401 181,-422 262,-422 262,-401 181,-401"/>
<text text-anchor="start" x="186" y="-409" font-family="Linux libertine" font-size="10.00">(1, 32, 70, 70) </text>
<polygon fill="none" stroke="black" points="133,-380 133,-401 181,-401 181,-380 133,-380"/>
<text text-anchor="start" x="138" y="-388" font-family="Linux libertine" font-size="10.00">output: </text>
<polygon fill="none" stroke="black" points="181,-380 181,-401 262,-401 262,-380 181,-380"/>
<text text-anchor="start" x="186" y="-388" font-family="Linux libertine" font-size="10.00">(1, 32, 70, 70) </text>
</g>
<!-- 4&#45;&gt;5 -->
<g id="edge5" class="edge">
<title>4&#45;&gt;5</title>
<path fill="none" stroke="black" d="M154.45,-466.86C152.63,-456.56 150.38,-443.81 148.36,-432.35"/>
<polygon fill="black" stroke="black" points="151.77,-431.53 146.58,-422.29 144.87,-432.75 151.77,-431.53"/>
</g>
<!-- 6 -->
<g id="node7" class="node">
<title>6</title>
<polygon fill="#c1ffc1" stroke="transparent" points="238,-344 62,-344 62,-302 238,-302 238,-344"/>
<polygon fill="none" stroke="black" points="62,-302 62,-344 109,-344 109,-302 62,-302"/>
<text text-anchor="start" x="67" y="-326" font-family="Linux libertine" font-size="10.00">Conv2d</text>
<text text-anchor="start" x="67" y="-315" font-family="Linux libertine" font-size="10.00">depth:2</text>
<polygon fill="none" stroke="black" points="109,-323 109,-344 157,-344 157,-323 109,-323"/>
<text text-anchor="start" x="119" y="-331" font-family="Linux libertine" font-size="10.00">input:</text>
<polygon fill="none" stroke="black" points="157,-323 157,-344 238,-344 238,-323 157,-323"/>
<text text-anchor="start" x="162" y="-331" font-family="Linux libertine" font-size="10.00">(1, 32, 70, 70) </text>
<polygon fill="none" stroke="black" points="109,-302 109,-323 157,-323 157,-302 109,-302"/>
<text text-anchor="start" x="114" y="-310" font-family="Linux libertine" font-size="10.00">output: </text>
<polygon fill="none" stroke="black" points="157,-302 157,-323 238,-323 238,-302 157,-302"/>
<text text-anchor="start" x="162" y="-310" font-family="Linux libertine" font-size="10.00">(1, 32, 70, 70) </text>
</g>
<!-- 5&#45;&gt;6 -->
<g id="edge6" class="edge">
<title>5&#45;&gt;6</title>
<path fill="none" stroke="black" d="M144.88,-379.63C145.6,-371.82 146.43,-362.73 147.22,-354.18"/>
<polygon fill="black" stroke="black" points="150.71,-354.44 148.14,-344.16 143.74,-353.8 150.71,-354.44"/>
</g>
<!-- 7 -->
<g id="node8" class="node">
<title>7</title>
<polygon fill="#c1ffc1" stroke="transparent" points="262.5,-266 59.5,-266 59.5,-224 262.5,-224 262.5,-266"/>
<polygon fill="none" stroke="black" points="60,-224 60,-266 128,-266 128,-224 60,-224"/>
<text text-anchor="start" x="65" y="-248" font-family="Linux libertine" font-size="10.00">PixelShuffle</text>
<text text-anchor="start" x="75.5" y="-237" font-family="Linux libertine" font-size="10.00">depth:2</text>
<polygon fill="none" stroke="black" points="128,-245 128,-266 176,-266 176,-245 128,-245"/>
<text text-anchor="start" x="138" y="-253" font-family="Linux libertine" font-size="10.00">input:</text>
<polygon fill="none" stroke="black" points="176,-245 176,-266 263,-266 263,-245 176,-245"/>
<text text-anchor="start" x="184" y="-253" font-family="Linux libertine" font-size="10.00">(1, 32, 70, 70) </text>
<polygon fill="none" stroke="black" points="128,-224 128,-245 176,-245 176,-224 128,-224"/>
<text text-anchor="start" x="133" y="-232" font-family="Linux libertine" font-size="10.00">output: </text>
<polygon fill="none" stroke="black" points="176,-224 176,-245 263,-245 263,-224 176,-224"/>
<text text-anchor="start" x="181" y="-232" font-family="Linux libertine" font-size="10.00">(1, 2, 280, 280) </text>
</g>
<!-- 6&#45;&gt;7 -->
<g id="edge7" class="edge">
<title>6&#45;&gt;7</title>
<path fill="none" stroke="black" d="M152.95,-301.63C154.08,-293.82 155.4,-284.73 156.63,-276.18"/>
<polygon fill="black" stroke="black" points="160.11,-276.56 158.08,-266.16 153.19,-275.55 160.11,-276.56"/>
</g>
<!-- 8 -->
<g id="node9" class="node">
<title>8</title>
<polygon fill="#c1ffc1" stroke="transparent" points="261,-188 79,-188 79,-146 261,-146 261,-188"/>
<polygon fill="none" stroke="black" points="79,-146 79,-188 126,-188 126,-146 79,-146"/>
<text text-anchor="start" x="84" y="-170" font-family="Linux libertine" font-size="10.00">Conv2d</text>
<text text-anchor="start" x="84" y="-159" font-family="Linux libertine" font-size="10.00">depth:2</text>
<polygon fill="none" stroke="black" points="126,-167 126,-188 174,-188 174,-167 126,-167"/>
<text text-anchor="start" x="136" y="-175" font-family="Linux libertine" font-size="10.00">input:</text>
<polygon fill="none" stroke="black" points="174,-167 174,-188 261,-188 261,-167 174,-167"/>
<text text-anchor="start" x="179" y="-175" font-family="Linux libertine" font-size="10.00">(1, 2, 280, 280) </text>
<polygon fill="none" stroke="black" points="126,-146 126,-167 174,-167 174,-146 126,-146"/>
<text text-anchor="start" x="131" y="-154" font-family="Linux libertine" font-size="10.00">output: </text>
<polygon fill="none" stroke="black" points="174,-146 174,-167 261,-167 261,-146 174,-146"/>
<text text-anchor="start" x="179" y="-154" font-family="Linux libertine" font-size="10.00">(1, 3, 280, 280) </text>
</g>
<!-- 7&#45;&gt;8 -->
<g id="edge8" class="edge">
<title>7&#45;&gt;8</title>
<path fill="none" stroke="black" d="M163.41,-223.63C164.34,-215.82 165.41,-206.73 166.43,-198.18"/>
<polygon fill="black" stroke="black" points="169.91,-198.5 167.61,-188.16 162.96,-197.68 169.91,-198.5"/>
</g>
<!-- 11 -->
<g id="node12" class="node">
<title>11</title>
<polygon fill="aliceblue" stroke="transparent" points="363,-110 163,-110 163,-68 363,-68 363,-110"/>
<polygon fill="none" stroke="black" points="163,-68 163,-110 210,-110 210,-68 163,-68"/>
<text text-anchor="start" x="177" y="-92" font-family="Linux libertine" font-size="10.00">add</text>
<text text-anchor="start" x="168" y="-81" font-family="Linux libertine" font-size="10.00">depth:1</text>
<polygon fill="none" stroke="black" points="210,-89 210,-110 258,-110 258,-89 210,-89"/>
<text text-anchor="start" x="220" y="-97" font-family="Linux libertine" font-size="10.00">input:</text>
<polygon fill="none" stroke="black" points="258,-89 258,-110 363,-110 363,-89 258,-89"/>
<text text-anchor="start" x="263" y="-97" font-family="Linux libertine" font-size="10.00">2 x (1, 3, 280, 280) </text>
<polygon fill="none" stroke="black" points="210,-68 210,-89 258,-89 258,-68 210,-68"/>
<text text-anchor="start" x="215" y="-76" font-family="Linux libertine" font-size="10.00">output: </text>
<polygon fill="none" stroke="black" points="258,-68 258,-89 363,-89 363,-68 258,-68"/>
<text text-anchor="start" x="272" y="-76" font-family="Linux libertine" font-size="10.00">(1, 3, 280, 280) </text>
</g>
<!-- 8&#45;&gt;11 -->
<g id="edge9" class="edge">
<title>8&#45;&gt;11</title>
<path fill="none" stroke="black" d="M194.92,-145.63C205.85,-136.7 218.82,-126.1 230.5,-116.56"/>
<polygon fill="black" stroke="black" points="232.8,-119.2 238.33,-110.16 228.37,-113.78 232.8,-119.2"/>
</g>
<!-- 10 -->
<g id="node11" class="node">
<title>10</title>
<polygon fill="#c1ffc1" stroke="transparent" points="481,-587 299,-587 299,-545 481,-545 481,-587"/>
<polygon fill="none" stroke="black" points="299,-545 299,-587 346,-587 346,-545 299,-545"/>
<text text-anchor="start" x="304" y="-569" font-family="Linux libertine" font-size="10.00">Conv2d</text>
<text text-anchor="start" x="304" y="-558" font-family="Linux libertine" font-size="10.00">depth:2</text>
<polygon fill="none" stroke="black" points="346,-566 346,-587 394,-587 394,-566 346,-566"/>
<text text-anchor="start" x="356" y="-574" font-family="Linux libertine" font-size="10.00">input:</text>
<polygon fill="none" stroke="black" points="394,-566 394,-587 481,-587 481,-566 394,-566"/>
<text text-anchor="start" x="399" y="-574" font-family="Linux libertine" font-size="10.00">(1, 2, 280, 280) </text>
<polygon fill="none" stroke="black" points="346,-545 346,-566 394,-566 394,-545 346,-545"/>
<text text-anchor="start" x="351" y="-553" font-family="Linux libertine" font-size="10.00">output: </text>
<polygon fill="none" stroke="black" points="394,-545 394,-566 481,-566 481,-545 394,-545"/>
<text text-anchor="start" x="399" y="-553" font-family="Linux libertine" font-size="10.00">(1, 3, 280, 280) </text>
</g>
<!-- 9&#45;&gt;10 -->
<g id="edge11" class="edge">
<title>9&#45;&gt;10</title>
<path fill="none" stroke="black" d="M393.66,-622.63C393.15,-614.82 392.55,-605.73 391.99,-597.18"/>
<polygon fill="black" stroke="black" points="395.48,-596.91 391.33,-587.16 388.49,-597.37 395.48,-596.91"/>
</g>
<!-- 10&#45;&gt;11 -->
<g id="edge12" class="edge">
<title>10&#45;&gt;11</title>
<path fill="none" stroke="black" d="M379.4,-544.52C364.72,-514.22 340,-455.28 340,-402 340,-402 340,-402 340,-244 340,-196.12 309.85,-147.86 287.28,-118.45"/>
<polygon fill="black" stroke="black" points="289.8,-115.99 280.86,-110.3 284.31,-120.32 289.8,-115.99"/>
</g>
<!-- 12 -->
<g id="node13" class="node">
<title>12</title>
<polygon fill="lightyellow" stroke="transparent" points="343.5,-32 182.5,-32 182.5,0 343.5,0 343.5,-32"/>
<polygon fill="none" stroke="black" points="183,0 183,-32 260,-32 260,0 183,0"/>
<text text-anchor="start" x="188" y="-19" font-family="Linux libertine" font-size="10.00">output&#45;tensor</text>
<text text-anchor="start" x="203" y="-8" font-family="Linux libertine" font-size="10.00">depth:0</text>
<polygon fill="none" stroke="black" points="260,0 260,-32 344,-32 344,0 260,0"/>
<text text-anchor="start" x="265" y="-13.5" font-family="Linux libertine" font-size="10.00">(1, 3, 280, 280)</text>
</g>
<!-- 11&#45;&gt;12 -->
<g id="edge13" class="edge">
<title>11&#45;&gt;12</title>
<path fill="none" stroke="black" d="M263,-67.84C263,-59.89 263,-50.66 263,-42.26"/>
<polygon fill="black" stroke="black" points="266.5,-42.24 263,-32.24 259.5,-42.24 266.5,-42.24"/>
</g>
</g>
</svg>
